<svg xmlns="http://www.w3.org/2000/svg" viewBox="0 0 96.02796 107.57596"><defs><style>.cls-1{fill:#c42323;}.cls-2{fill:#c1b09a;}.cls-3{fill:#fff;}</style></defs><title>logo</title><g id="Layer_2" data-name="Layer 2"><g id="top"><path class="cls-1" d="M.00177,71.42488a.74815.74815,0,0,0,.12468.46353.2548.2548,0,0,0,.19174.10286c.38756,0,.55823-.30419.68623-.52908a.80564.80564,0,0,1,.23192-.3131,1.4256,1.4256,0,0,0,.37351-.55347l.09734-.22535c.12868-.1246.253-.23524.35184-.34587a1.862,1.862,0,0,0,.58406-.83553.16.16,0,0,1,.04977-.00665c.08043,0,.12136,0,.14379.48158-.06336.11652-.13827.23154-.22157.36724l-.076.111a.22908.22908,0,0,0-.04055.10142,3.31234,3.31234,0,0,1-.53837,1.36174,3.626,3.626,0,0,0-.58889,1.57855.20243.20243,0,0,0,.03836.14454c.073.13238.15632.26477.32118.26477l.06449-.21976v.229a.60332.60332,0,0,0,.4886-.3057.40658.40658,0,0,0,.1018-.14968c.02318-.02726.03466-.05679.049-.07408.25812-.434.5037-.81461.74227-1.18994.34882-.54683.71651-1.11321,1.03656-1.73752.06049-.1342.12355-.2736.18-.423a6.74566,6.74566,0,0,1,.58625-1.12794c.00113.00438.01254.00438.01812.00438a.237.237,0,0,0,.14265-.0663,2.71279,2.71279,0,0,0,.73456-1.0358l.08035-.17777a4.70657,4.70657,0,0,0,1.49782-2.22091c-.00332.028-.0907.2847-.1246.39345a5.5425,5.5425,0,0,1-.16229.9226.16306.16306,0,0,0-.00476.08262,1.4187,1.4187,0,0,1,0,.41814l-.03542.15783a6.07638,6.07638,0,0,0-.12755.69318,2.89856,2.89856,0,0,0-.47569.93295,3.59378,3.59378,0,0,1-.17883.44616.63133.63133,0,0,0-.01812.30237.36767.36767,0,0,0-.0114.13971.765.765,0,0,0-.02213.14824c-.018.39753-.07371,1.47169.67113,1.58489h.035a.26185.26185,0,0,0,.12053-.02839c.39534-.243.38612-.74264.38386-1.14644V70.02a.64678.64678,0,0,1,.02477-.31234c.00657-.03942.0623-.24521.0623-.24521.11282-.37057.23154-.75042.35063-1.13685l.24709-.79611A15.78006,15.78006,0,0,1,9.3851,64.38933c.00559-.00695.00559-.01586.01442-.02583a.45064.45064,0,0,0,.06117-.13012l.06344-.10286a4.2746,4.2746,0,0,1,.71538-1.0207,2.36876,2.36876,0,0,1-.07189.469,1.881,1.881,0,0,0-.07824.55166,1.25773,1.25773,0,0,1-.01473.143c0,.06525-.00332.11577-.00332.16886-.01216,0-.01216.04833-.01216.08926a3.28171,3.28171,0,0,1-.04312.38756,7.53483,7.53483,0,0,0-.06895.76553,2.50494,2.50494,0,0,0-.2548.58224,6.8461,6.8461,0,0,0-.21613,1.21274c-.03021.21168-.05384.43883-.09107.67151a2.20007,2.20007,0,0,1-.08481.34625c-.04863.1681-.10437.3322-.15262.49374A8.39174,8.39174,0,0,0,8.88328,70.02s-.02839.16372-.0432.201l-.04826.25185a4.84579,4.84579,0,0,0-.059.9263c.03315.23411.06374.36724.09032.48377a2.40764,2.40764,0,0,1,.05422.26326,1.5876,1.5876,0,0,1-.05422.40228.99645.99645,0,0,0,.19688.9812.24483.24483,0,0,0,.16153.06344.20452.20452,0,0,0,.03723-.00257.71837.71837,0,0,0,.60807-.63057l.02583-.0833a2.8212,2.8212,0,0,0-.00446-.29792L9.84161,72.492a2.01839,2.01839,0,0,0-.02213-.3606c0-.12355,0-.28432-.01254-.4263a3.94773,3.94773,0,0,0,.10255-.61026l.03391-.20465c.03836-.19212.06087-.375.09953-.55234a29.40333,29.40333,0,0,1,.77806-3.21873l.03836-.15821c.17256-.57968.35025-1.1416.53467-1.656.08813-.26915.19431-.54169.28908-.80011.08148-.23124.163-.44329.24075-.666.05316-.15632.1129-.31785.17112-.47342l.15413-.35992c.15081-.31785.32707-.705.3794-.80608.24634-.73675.42554-1.44209.59886-2.12281.21719-.833.41746-1.61548.70428-2.40532.04833-.15043.21983-.57635.21983-.57635a10.2637,10.2637,0,0,1,.681-1.36136c.08556-.132.1755-.31967.27322-.51549.27617-.55861.6527-1.31937,1.11291-1.31937.18253,0,.24626.0771.38862.2511a1.59545,1.59545,0,0,0,.49487.4488,1.321,1.321,0,0,0,.62574.10769c.17037,0,.34474-.01518.45756-.02545a9.17741,9.17741,0,0,0,.93808-.20065,8.2025,8.2025,0,0,1,.89421-.19136c.2264-.05641.441-.105.656-.14892a3.87582,3.87582,0,0,0,1.73933-.659c.14235-.094.28062-.208.4115-.31234a2.4529,2.4529,0,0,1,.98679-.573.73952.73952,0,0,1,.29271.13133,1.41028,1.41028,0,0,0,1.15527.28576,4.52163,4.52163,0,0,0,.701-.16856,3.57306,3.57306,0,0,1,.62536-.16221c.04758-.00151.12536-.00476.19136-.00476a4.74,4.74,0,0,1,1.451.28244c.12982.03315.25993.07929.399.11539a1.23923,1.23923,0,0,0,.10512.43513.62017.62017,0,0,0,.549.42517c.16191,0,.45839-.07929.68442-.61064a3.849,3.849,0,0,0,.104-.50189,1.98858,1.98858,0,0,0,.69839-1.642,3.32337,3.32337,0,0,1,.94949-2.46468,4.81388,4.81388,0,0,0,1.17483-1.29687c.11947-.43468.2474-.47123.61464-.58292.10988-.031.226-.07046.35033-.11841A.22678.22678,0,0,0,34.011,46.504c0-.788-.37019-.8853-1.06012-.99925-.01473-.017-.06895-.07378-.121-.13389a1.85933,1.85933,0,0,0-.17067-.13533c.2227-.12793.47123-.29716.726-.46572a4.54854,4.54854,0,0,1,1.7644-.89081c.25336-.01329.573-.01775.91414-.01775.5136,0,.98264.01442,1.32413.045l.12982.00219c.02024,0,1.77248-.01027,2.17446-.69393a.61186.61186,0,0,0-.01072-.63979.18657.18657,0,0,0-.06125-.07046,4.15016,4.15016,0,0,0-.59108-.399,1.114,1.114,0,0,1,.2227-.08254h.00891a.34429.34429,0,0,0,.087-.02364l.15262-.00446.20541.00446a.57774.57774,0,0,0,.55423-.3134.62477.62477,0,0,0,.01661-.35916l-.00295-.00778c-.07816-.02024-.149-.04425-.22829-.07265a7.05519,7.05519,0,0,0-.72308-.10837.41276.41276,0,0,1-.18917-.11728.59055.59055,0,0,1-.11539-.048.5471.5471,0,0,1-.00076-.49517c.20646-.39677.98158-.64976,1.64568-.72089h.31861a1.96332,1.96332,0,0,1,.91445.51549l.17445.139a.05911.05911,0,0,0,.035.03353.15108.15108,0,0,0,.05528.04055c.01367.00884.031.02213.04312.02991a.238.238,0,0,0,.1317.03867h.04788a.2698.2698,0,0,0,.14348-.09878c.33107-.50446-.16961-1.62432-.47939-2.14758a3.2276,3.2276,0,0,0-.74189-.84l-.00332-.00438a3.65093,3.65093,0,0,0-1.1774-.59372,5.55577,5.55577,0,0,0-.88424-.15708c-.1209-.01359-.2227-.02613-.33334-.04055a6.73611,6.73611,0,0,0-2.80239-.56971,10.9805,10.9805,0,0,0-5.322,1.56571,7.45893,7.45893,0,0,1-3.8456,1.35177,2.39388,2.39388,0,0,1-1.06156-.95281,21.27341,21.27341,0,0,1-1.15527-4.12622c-.10988-.51805-.21681-1.02878-.3356-1.5306l-.08367-.76515c-.11207-.93589-.22051-1.84483-.31785-2.7774-.22565-.83107-.44065-1.61691-.68955-2.39014-.04607-.1604-.24853-.7323-.28727-.86211l-.14084-.32231c-.02394-.06449-.04206-.12679-.06782-.18766l-.205-.47493a11.57912,11.57912,0,0,0-2.46506-3.72462c-.16183-.16153-.31823-.32412-.48264-.46466a.951.951,0,0,0-.12468-.115.854.854,0,0,0-.07778-.052,6.84134,6.84134,0,0,0-1.10656-.75.77851.77851,0,0,0-.10437-.34776,54.85477,54.85477,0,0,0-3.78994-6.46955.70927.70927,0,0,0-.1169-.24407,1.20975,1.20975,0,0,0-.1681-.25993c-1.04426-1.55756-1.30314-3.49754-2.47351-4.984a35.31382,35.31382,0,0,1-1.62394-3.86252,3.60883,3.60883,0,0,0-.65489-1.37579.425.425,0,0,0-.20835-.22384A5.44492,5.44492,0,0,0,7.40427.59481c-.02137-.02809-.04169-.062-.04758-.06532A.59732.59732,0,0,0,7.30617.46423.81512.81512,0,0,0,6.22868.06709,1.47407,1.47407,0,0,0,5.86.23005a.21126.21126,0,0,0-.10142.11841,1.38318,1.38318,0,0,0-.0111.8094c-.01473.47493-.035.95424-.06079,1.43031-.25442.24188-.60331.201-.98717.17369a.73748.73748,0,0,0-.6058.2773.20972.20972,0,0,0-.17.16629A4.19489,4.19489,0,0,0,4.00445,4.659a1.89686,1.89686,0,0,1-1.066,2.06307.67154.67154,0,0,0-.28984.30826c-.02877.01918-.06857.03066-.08888.06457a.96183.96183,0,0,0-.03172.75186.574.574,0,0,1,.03172.30789.54352.54352,0,0,0,.00921.12279,1.99877,1.99877,0,0,0,.0509.44986,2.966,2.966,0,0,0,.16486.48634A4.184,4.184,0,0,1,2.667,11.74435a.24369.24369,0,0,0-.12793.12574,3.3591,3.3591,0,0,0,.052,2.0528c.024.04055.04871.07778.07008.115.12355.535.31566,1.04464.43438,1.57493a1.3915,1.3915,0,0,1-.57341,1.70353.741.741,0,0,0-.1132.978.15321.15321,0,0,1,.017.06668,7.54948,7.54948,0,0,0,2.26667,3.15831l.042.03942a1.42437,1.42437,0,0,0,.028.632,1.49731,1.49731,0,0,0,.35327.51216.95464.95464,0,0,1,.153.16267c.0262.04312.05347.08919.08156.13608a1.05232,1.05232,0,0,0-.02031.11131c-.00921.09848-.4189.11985-.555.12868-.12166.007-.22973.01254-.31083.02507-.59327.15745-.92366.36762-1.02765.67075a1.03248,1.03248,0,0,0,.25774.89934.82477.82477,0,0,0,.11909.13389,7.00267,7.00267,0,0,0,.573.59878,5.03793,5.03793,0,0,1,.71236.80276,1.406,1.406,0,0,1,.08669.16961.395.395,0,0,1,.01473.10807,1.23307,1.23307,0,0,0,.02031.12241.94.94,0,0,0-.00816.17958.768.768,0,0,1-.19763.40712s-.19688.21492-.243.28833a.93124.93124,0,0,0-.105.14341l-.0509.0657a1.36839,1.36839,0,0,0-.12241.17958c-.00551.00884-.18177.46678-.08.6567a2.47668,2.47668,0,0,0,1.28,1.23011c.13752.07408.28908.15375.428.23969a3.111,3.111,0,0,1,.29762.46972,1.36875,1.36875,0,0,1,.0734.18585l-.00332-.00695a.69961.69961,0,0,0-.01254.09734l-.03617.29165A3.13665,3.13665,0,0,0,6.419,32.23561a.53505.53505,0,0,0,.177.40561c-.02583.10542-.04025.23086-.05868.35033a1.39829,1.39829,0,0,0,.11471.9587.54678.54678,0,0,0,.53021.24445c.10844.01035.24853.02031.45062.045a1.5161,1.5161,0,0,1,.50627.16742l.01254.02839c.02031.01654.0546.0472.07484.06744a3.9052,3.9052,0,0,0-.22822.96021.19936.19936,0,0,0-.0114.07416v.50884a1.23709,1.23709,0,0,0-.39677.90116,1.813,1.813,0,0,1-.04644.2622c-.06457.15232-.16637.34444-.26114.53723a6.18958,6.18958,0,0,0-.44873,1.04985,5.95719,5.95719,0,0,0-.17407,1.04351c-.0077.0472-.0077.09364-.0151.14379A2.77717,2.77717,0,0,0,5.5167,42.623a2.45169,2.45169,0,0,0,.34587.67475,2.60066,2.60066,0,0,1,.2588.41263,2.53215,2.53215,0,0,1-.00325,2.21132,6.45193,6.45193,0,0,0-.32231,1.2169.99543.99543,0,0,0,0,.29309.32043.32043,0,0,0,.21236.34074,1.8619,1.8619,0,0,0,.19914.01442.574.574,0,0,0,.28508-.05679c.10361-.05422.18985-.10731.27655-.16116a2.23377,2.23377,0,0,1,.39269-.22051c.03723-.00332.06676-.00476.0833-.00476a1.04056,1.04056,0,0,1,.10769.27685v.08262a.31445.31445,0,0,1-.02175.11766.24457.24457,0,0,0-.00219.0262.42794.42794,0,0,0-.01661.08586,1.11536,1.11536,0,0,0-.08367.13019.08676.08676,0,0,0-.0358.05052c-.06155.08111-.13865.17958-.22308.29384a.316.316,0,0,0-.12241.22942c0,.01254.00476.09508.007.10391,0,.02477.00921.06125.00921.083a.55487.55487,0,0,0,.02583.12166c.01948.09515.02832.13684.03723.17226a.63645.63645,0,0,0,.10172.15557.59019.59019,0,0,0,.13827.166.83751.83751,0,0,0,.31529.18472.3303.3303,0,0,1,.062.01435.72642.72642,0,0,0,.21568.04871c.0623.01956.09621.02469.139.03723.22384.00808.406.00808.56563.00808.86544.00891,1.07152.00891,1.41928,1.0793a.2452.2452,0,0,0,.17.15375l.11433.024c.15187.03466.3171.07114.48558.104a2.01931,2.01931,0,0,0,.52145.06744H11.276a1.03652,1.03652,0,0,0,.57008-.21092.31682.31682,0,0,0,.0697-.06117l.121-.12136a.2544.2544,0,0,0,.08216-.12053,1.86023,1.86023,0,0,0,.11622-.19582,1.81068,1.81068,0,0,1,.23154-.33779.17871.17871,0,0,0,.07114-.05014c.14605-.15413.27881-.295.40561-.43581.14129-.14273.2696-.28908.40009-.42517l.68291-.562c.24453-.18766.47863-.38567.7036-.57854.08111-.09032.19506-.19317.31264-.29943a2.2886,2.2886,0,0,1,.83077-.41369.12186.12186,0,0,1,.06676.06087.3188.3188,0,0,1-.06676.25993l-.19907.23154a4.65377,4.65377,0,0,0-.35.43l-.35252.47455a.09408.09408,0,0,0-.01254.03391A49.10876,49.10876,0,0,0,11.23733,52.659a13.25486,13.25486,0,0,0-1.71985,3.00086,9.12185,9.12185,0,0,0-.70579.92842l-.23486.337-.21387.45877c-.17407.37865-.34.7437-.52583,1.09879a7.84215,7.84215,0,0,1-.67075.88167c-.16183.19212-.31929.38537-.46277.57341a.5539.5539,0,0,0-.05271.104s-.17437.30124-.19136.32631a17.75166,17.75166,0,0,0-1.91415,3.00486c-.05747.1132-.10912.20579-.15187.28357a1.4388,1.4388,0,0,1-.43332.56789.90225.90225,0,0,0-.14673.25518.20894.20894,0,0,0-.01737.07114.53462.53462,0,0,0-.23818.19355.21835.21835,0,0,0-.066.06714c-.02583.06487-.05528.12279-.08443.18109a2.22073,2.22073,0,0,1-.49192.74408,2.33517,2.33517,0,0,0-.52983,1.14123,1.61173,1.61173,0,0,0-.03391.16561c-.1453.21387-.28508.43619-.4263.64122a10.78762,10.78762,0,0,0-1.21282,2.17c-.04682.11177-.08292.22754-.12241.34a.78385.78385,0,0,0-.04863.13941c-.018.04977-.02915.09145-.04169.1246l-.19431.23343.122.22754-.18177-.14567a1.14794,1.14794,0,0,0-.24415.65081M27.05441,49.29866a2.85,2.85,0,0,1,.66373-.96791c.10618-.11139.1965-.21719.28062-.32412a4.50394,4.50394,0,0,1,2.15415-1.84332,1.1291,1.1291,0,0,1,.40009-.052h.01367a1.15683,1.15683,0,0,0-.17852.7585c-.209.07816-.26439.12022-.313.24672a.19929.19929,0,0,0-.017.07892v.27836a.63768.63768,0,0,0,.16523.32669c-.07046.05641-.15375.1206-.2113.159-.05165.04425-.09953.07371-.14824.11131a.2382.2382,0,0,0-.07816.12211,1.49794,1.49794,0,0,1-.08926.28795c-.06706.09183-.14492.17883-.2113.25993a2.56215,2.56215,0,0,0-.40266.63684,1.37271,1.37271,0,0,0-.191.22935c-.27247.3433-.52764.66667-.858.68585l-.09477.00665a.91316.91316,0,0,1-.88424-1.00076"/><path class="cls-1" d="M95.78086,70.77407l-.1814.14567.11872-.22754c-.0435-.05271-.19318-.23343-.19318-.23343a1.20829,1.20829,0,0,1-.04282-.1246.50632.50632,0,0,0-.04939-.13941,2.3704,2.3704,0,0,0-.12022-.34,10.99653,10.99653,0,0,0-1.20579-2.17c-.14749-.205-.28614-.42736-.43068-.64122a1.48444,1.48444,0,0,0-.03172-.16523,2.4223,2.4223,0,0,0-.53021-1.1416,2.33034,2.33034,0,0,1-.49638-.74408c-.03391-.0583-.05377-.11622-.08919-.18109a.16695.16695,0,0,0-.06268-.06714.50664.50664,0,0,0-.23826-.19355.12442.12442,0,0,0-.01767-.07114.77384.77384,0,0,0-.14454-.25555,1.60866,1.60866,0,0,1-.44246-.56752c-.04131-.07778-.09-.17037-.14975-.28357A17.08548,17.08548,0,0,0,89.569,60.36823l-.191-.32631a1.13221,1.13221,0,0,0-.05384-.104c-.13941-.188-.30011-.38129-.46089-.57341a7.474,7.474,0,0,1-.67483-.88167c-.18509-.35509-.351-.72014-.52432-1.09879l-.21682-.45877-.22935-.337a10.04332,10.04332,0,0,0-.70874-.92842A13.3692,13.3692,0,0,0,84.78582,52.659a48.72,48.72,0,0,0-3.71616-3.81977.04332.04332,0,0,0-.017-.03391l-.34957-.47455a4.85618,4.85618,0,0,0-.35327-.43l-.19393-.23116a.30522.30522,0,0,1-.06933-.26031.14237.14237,0,0,1,.06933-.06087,2.26961,2.26961,0,0,1,.82964.41369,3.62076,3.62076,0,0,1,.31347.29943c.21681.19287.45794.39088.70058.57854l.6814.56163c.12687.13646.26039.28281.40123.42554.12536.14084.264.28168.40561.43581a.2476.2476,0,0,0,.07084.05014,1.63646,1.63646,0,0,1,.23078.33779,1.67341,1.67341,0,0,0,.121.19582.20743.20743,0,0,0,.087.12053l.11358.12136a.24967.24967,0,0,0,.06933.06117,1.06511,1.06511,0,0,0,.57673.2113h.09289a2.03979,2.03979,0,0,0,.52138-.06782c.17558-.03285.3356-.06933.48384-.104l.12015-.024a.25322.25322,0,0,0,.17188-.15375c.33779-1.07039.55234-1.07039,1.41521-1.0793.16229,0,.34512,0,.56563-.00808.045-.01254.07673-.018.13352-.03723a.73323.73323,0,0,0,.22127-.04833.29972.29972,0,0,1,.059-.01473.85169.85169,0,0,0,.32156-.18472.60351.60351,0,0,0,.135-.166A.52547.52547,0,0,0,89.1,49.11764c.00891-.03542.0148-.0771.03836-.17226a.95874.95874,0,0,0,.02288-.12166.5944.5944,0,0,0,.00514-.083.87012.87012,0,0,0,.017-.10391.32345.32345,0,0,0-.12392-.22942c-.087-.11388-.16734-.21273-.22565-.29384a.11424.11424,0,0,0-.03609-.0509c-.01918-.02953-.03693-.06419-.08338-.12982a.2455.2455,0,0,0-.02062-.08586.07637.07637,0,0,0-.00816-.0262c-.00143-.03391-.00733-.06789-.00733-.11766V47.6205a.87227.87227,0,0,1,.10029-.27685c.01918,0,.05528.00143.08481.00476a2.05664,2.05664,0,0,1,.39677.22051,2.99258,2.99258,0,0,0,.2699.16116.62545.62545,0,0,0,.29278.05679,1.93373,1.93373,0,0,0,.19839-.01442.32937.32937,0,0,0,.208-.34074.82639.82639,0,0,0,0-.29271,6.76637,6.76637,0,0,0-.3208-1.21765,2.547,2.547,0,0,1-.00521-2.21094,3.81147,3.81147,0,0,1,.25518-.41263A2.60319,2.60319,0,0,0,90.513,42.623a2.76716,2.76716,0,0,0-1.135-2.63912c-.00514-.05045-.00514-.09659-.00884-.14379a6.947,6.947,0,0,0-.17331-1.04351,6.80151,6.80151,0,0,0-.44321-1.04985,5.97158,5.97158,0,0,1-.2699-.53723c-.02583-.08919-.028-.17626-.04652-.2622a1.24778,1.24778,0,0,0-.38937-.90116v-.50884a.21342.21342,0,0,0-.01843-.07416,3.84989,3.84989,0,0,0-.23154-.96021.68163.68163,0,0,1,.07816-.06744l.01027-.02839a1.55648,1.55648,0,0,1,.51481-.16742c.19914-.02469.33553-.03466.44835-.045a.53715.53715,0,0,0,.5244-.24445,1.42557,1.42557,0,0,0,.11577-.9587,2.29749,2.29749,0,0,0-.06344-.35033.52423.52423,0,0,0,.18215-.40561,3.16543,3.16543,0,0,0-.02137-1.03543l-.03172-.29165c-.00514-.05535-.00884-.09734-.01918-.09734v.00695a1.2748,1.2748,0,0,1,.07816-.18585,2.92009,2.92009,0,0,1,.28983-.46972c.1416-.08632.28689-.16523.42554-.23969a2.47867,2.47867,0,0,0,1.2832-1.23011c.101-.18993-.07891-.64787-.08262-.6567a1.31764,1.31764,0,0,0-.115-.17958l-.05233-.0657c-.0111-.01616-.09515-.13231-.10474-.14341-.04871-.073-.2375-.28833-.2375-.28833a.78489.78489,0,0,1-.20865-.40712,1.4754,1.4754,0,0,0-.00521-.18c.00521-.018.01775-.10731.01994-.12166.00808-.04312.00808-.08737.01254-.10844.01918-.04788.04569-.08737.08994-.16961a5.20462,5.20462,0,0,1,.71168-.80276,6.21444,6.21444,0,0,0,.57008-.59878.60436.60436,0,0,0,.11947-.13389,1.00291,1.00291,0,0,0,.25442-.89934c-.101-.30313-.42849-.5133-1.02357-.67075-.07892-.01254-.18736-.018-.309-.02507-.132-.00884-.54426-.03021-.55536-.12868a.44556.44556,0,0,1-.01473-.11131c.02288-.0469.05233-.093.07816-.13646a.84376.84376,0,0,1,.15194-.16229,1.414,1.414,0,0,0,.35471-.51216,1.43751,1.43751,0,0,0,.02288-.632l.03466-.03942A7.46728,7.46728,0,0,0,93.60163,18.361a.15629.15629,0,0,1,.01548-.06668.73117.73117,0,0,0-.11728-.978,1.40588,1.40588,0,0,1-.57673-1.70353c.12249-.53029.31785-1.03988.44254-1.57493a.70645.70645,0,0,0,.07076-.115,3.32135,3.32135,0,0,0,.04576-2.0528.204.204,0,0,0-.12317-.12574,4.192,4.192,0,0,1-.118-2.53068,2.55183,2.55183,0,0,0,.16448-.48634,1.92607,1.92607,0,0,0,.056-.44986.56282.56282,0,0,0,.0037-.12279.62755.62755,0,0,1,.03391-.30789.9378.9378,0,0,0-.03391-.75186c-.01918-.03429-.05973-.04539-.09145-.06457a.674.674,0,0,0-.28757-.30826A1.89171,1.89171,0,0,1,92.02784,4.659a4.02553,4.02553,0,0,0,.07446-1.45357.20561.20561,0,0,0-.17256-.16629.7372.7372,0,0,0-.60618-.2773c-.38053.02726-.73086.06819-.98015-.17369-.03534-.47607-.059-.95538-.06268-1.43031a1.37023,1.37023,0,0,0-.00959-.8094.23514.23514,0,0,0-.10248-.11841,1.45986,1.45986,0,0,0-.37026-.163A.81888.81888,0,0,0,88.718.46423c-.014.02469-.03391.03912-.05014.06525a.31824.31824,0,0,0-.048.06532,5.45221,5.45221,0,0,0-1.792,1.16147.44757.44757,0,0,0-.20359.22384,3.53329,3.53329,0,0,0-.65414,1.37579,37.49259,37.49259,0,0,1-1.61873,3.86252c-1.17778,1.48642-1.43144,3.4264-2.48243,4.984a2.23309,2.23309,0,0,0-.16516.25993.76631.76631,0,0,0-.11871.24407,56.27793,56.27793,0,0,0-3.79289,6.46955.68558.68558,0,0,0-.09953.34776,7.37593,7.37593,0,0,0-1.11653.75c-.00521.00332-.06638.04758-.07008.052a.85406.85406,0,0,0-.118.115,5.19519,5.19519,0,0,0-.48377.46466A11.49316,11.49316,0,0,0,73.43155,24.63l-.20058.47493a1.25552,1.25552,0,0,1-.076.18766l-.12687.32231c-.05233.12982-.25366.70171-.30011.86211-.24045.77323-.45507,1.55907-.68147,2.39014-.1018.93257-.21311,1.8415-.323,2.7774l-.07967.76515c-.12166.50182-.23154,1.01254-.34074,1.5306A21.13467,21.13467,0,0,1,70.1549,38.0665a2.37456,2.37456,0,0,1-1.06782.95281,7.46938,7.46938,0,0,1-3.84454-1.35177,10.96486,10.96486,0,0,0-5.32016-1.56609,6.70229,6.70229,0,0,0-2.798.57008c-.118.01473-.22346.027-.33772.04055a5.66424,5.66424,0,0,0-.88643.15708,3.749,3.749,0,0,0-1.18072.59372v.00438a1.78218,1.78218,0,0,0-.576.59923.90073.90073,0,0,0-.16.24075c-.31272.52326-.81642,1.64312-.48158,2.14758a.24882.24882,0,0,0,.143.09878h.05165a.21863.21863,0,0,0,.12241-.03867c.014-.00778.03315-.02107.04569-.02991a.20273.20273,0,0,0,.06125-.04055.08757.08757,0,0,0,.03172-.03353l.17407-.139a1.9908,1.9908,0,0,1,.91664-.51549h.31642a2.29565,2.29565,0,0,1,1.64455.72052.51639.51639,0,0,1-.00295.49555.82829.82829,0,0,1-.10988.048.43831.43831,0,0,1-.19468.11728c-.24045.06563-.49193.02024-.72422.10837a2.34462,2.34462,0,0,1-.22565.07265v.00778a.64307.64307,0,0,0,.01178.35954.58891.58891,0,0,0,.55679.313l.19839-.00446.163.00446a.35122.35122,0,0,0,.08186.02364h.0074a1.04155,1.04155,0,0,1,.2264.08254,4.16965,4.16965,0,0,0-.59146.399.1819.1819,0,0,0-.06049.07046.63454.63454,0,0,0-.017.63979c.40787.68366,2.16306.69393,2.1756.69393l.132-.00219c.34293-.03058.80683-.045,1.32745-.045.33779,0,.66229.00446.91671.01775a4.54084,4.54084,0,0,1,1.75889.89081c.26182.16856.50514.33779.72271.46572-.05679.04282-.11282.09039-.16221.13533-.05535.06011-.11139.11652-.12392.13352-.6888.11433-1.0568.21168-1.0568.99963a.225.225,0,0,0,.14748.21387c.132.048.24928.08745.35841.11841.36286.11169.48747.14824.60769.58292a4.869,4.869,0,0,0,1.177,1.29687,3.30838,3.30838,0,0,1,.955,2.46468,1.98408,1.98408,0,0,0,.70141,1.642,2.81933,2.81933,0,0,0,.09213.50189c.23161.53134.5244.61064.68955.61064a.63628.63628,0,0,0,.55241-.42517,1.40948,1.40948,0,0,0,.101-.43513c.13941-.0361.27141-.08224.39828-.11539a4.72365,4.72365,0,0,1,1.444-.28244c.073,0,.15119.00325.1962.00476a3.92448,3.92448,0,0,1,.632.16221,4.23864,4.23864,0,0,0,.69545.16856,1.57739,1.57739,0,0,0,.27435.0262,1.51861,1.51861,0,0,0,.88348-.312.68412.68412,0,0,1,.292-.13133,2.48149,2.48149,0,0,1,.98234.573c.13941.10437.27285.21832.41369.312a3.88722,3.88722,0,0,0,1.739.65935c.21606.04388.427.09251.66078.14892a7.8571,7.8571,0,0,1,.88787.19136,9.29183,9.29183,0,0,0,.93808.20065c.11584.01027.28614.02507.4661.02507a1.30859,1.30859,0,0,0,.61947-.10731,1.53593,1.53593,0,0,0,.49192-.4488c.14824-.174.21462-.2511.39164-.2511.46013,0,.83923.76077,1.11653,1.31937a5.003,5.003,0,0,0,.2699.51549,10.8937,10.8937,0,0,1,.68366,1.36136s.16591.42592.21825.57635c.28614.78984.48309,1.57236.70285,2.40532.17407.68072.35471,1.38606.59886,2.12281.05528.101.2301.4886.37389.80608l.15927.35992c.06049.15557.118.31748.16523.47342.08405.2227.17037.43476.25518.666.08994.25842.19393.531.28319.80011.18585.51405.36211,1.07636.528,1.656l.04569.15821a28.4494,28.4494,0,0,1,.77292,3.21873c.04055.17732.07.36022.098.55234l.03836.20465a4.51026,4.51026,0,0,0,.10255.61026,3.3911,3.3911,0,0,0-.01254.4263,2.5098,2.5098,0,0,0-.01775.3606l-.00884.08669c-.00589.07741-.00808.15413-.00589.29792l.02658.0833a.71147.71147,0,0,0,.60618.63057.20351.20351,0,0,0,.039.00257.22783.22783,0,0,0,.1564-.06344.97652.97652,0,0,0,.20276-.9812,1.44309,1.44309,0,0,1-.05528-.40228,1.39879,1.39879,0,0,1,.05528-.26326c.02364-.11652.05679-.24966.08775-.48377a4.90919,4.90919,0,0,0-.05822-.9263L87.184,70.221c-.01027-.03723-.03315-.201-.03315-.201a10.54158,10.54158,0,0,0-.2736-1.02878c-.04939-.16153-.104-.32563-.15195-.49374a1.70393,1.70393,0,0,1-.08111-.34625c-.04055-.233-.06638-.45983-.08994-.67151a6.438,6.438,0,0,0-.21908-1.21274,2.33283,2.33283,0,0,0-.25812-.58224c-.00884-.28946-.03761-.52878-.06638-.76553-.01254-.13533-.03542-.26182-.04055-.38756,0-.04093,0-.08926-.01692-.08926,0-.05309,0-.10361-.006-.16886a1.16174,1.16174,0,0,1-.00589-.143,2.37718,2.37718,0,0,0-.08624-.55166,2.84714,2.84714,0,0,1-.06789-.469,4.30454,4.30454,0,0,1,.71833,1.0207l.06344.10286a.27754.27754,0,0,0,.06268.13012.03136.03136,0,0,0,.01254.02583,15.95072,15.95072,0,0,1,1.19326,3.14019l.24626.79611c.121.38643.23894.76628.34814,1.13685,0,0,.05973.20579.06706.24521a.585.585,0,0,1,.01918.31234v.12536c-.00438.40379-.00438.90342.39164,1.14644a.24509.24509,0,0,0,.12022.028h.0324c.7471-.11282.68661-1.187.66818-1.58489a.7088.7088,0,0,0-.01918-.14786.46984.46984,0,0,0-.00884-.13971.55547.55547,0,0,0-.02062-.30275,4.06806,4.06806,0,0,1-.17558-.44578,3.16249,3.16249,0,0,0-.47637-.93295,5.15066,5.15066,0,0,0-.12611-.69318l-.04055-.15783a1.97092,1.97092,0,0,1,0-.41814.17353.17353,0,0,0,0-.08262,6.03989,6.03989,0,0,1-.16961-.9226c-.034-.10875-.11139-.36543-.118-.39345A4.65692,4.65692,0,0,0,90.07351,67.319l.07816.17777a2.79289,2.79289,0,0,0,.7323,1.0358.22348.22348,0,0,0,.14235.0663c.0148,0,.01843,0,.01843-.00438A5.97859,5.97859,0,0,1,91.623,69.7224c.06117.14937.12679.28878.19393.423.31634.62431.68366,1.19069,1.03029,1.73752.247.37532.4926.75624.74483,1.18994.014.01729.02877.04682.05233.07408a.53213.53213,0,0,0,.093.14968.61629.61629,0,0,0,.4889.30532v-.229l.06714.22013c.16667,0,.24853-.13238.32888-.26477a.24172.24172,0,0,0,.03761-.14454,3.75443,3.75443,0,0,0-.58995-1.57893,3.25505,3.25505,0,0,1-.545-1.36136.16439.16439,0,0,0-.0361-.10142l-.07084-.111a2.63276,2.63276,0,0,1-.22565-.36762c.02356-.4812.06049-.4812.14084-.4812a.09652.09652,0,0,1,.04206.00665,1.9641,1.9641,0,0,0,.59878.83553,4.0462,4.0462,0,0,0,.34957.34587l.08851.225a1.6395,1.6395,0,0,0,.37615.55385.8503.8503,0,0,1,.24037.3131.77958.77958,0,0,0,.67777.52908.24668.24668,0,0,0,.191-.10286.79069.79069,0,0,0,.12982-.46353,1.14987,1.14987,0,0,0-.24634-.65081M68.08775,50.29942l-.101-.00665c-.32669-.01918-.57371-.34255-.84512-.68585a1.62763,1.62763,0,0,0-.19688-.22935,2.383,2.383,0,0,0-.40568-.63684c-.06117-.08111-.13714-.1681-.21092-.25993a1.564,1.564,0,0,1-.08035-.28795.27229.27229,0,0,0-.08481-.12211c-.04644-.03761-.09289-.06668-.14748-.11131-.04939-.03836-.14311-.10255-.20579-.159a.75575.75575,0,0,0,.15859-.32707v-.278a.15866.15866,0,0,0-.014-.07929c-.04569-.12611-.10693-.16818-.31264-.24634a1.16072,1.16072,0,0,0-.17777-.7585h.00884a1.13786,1.13786,0,0,1,.39972.052,4.52446,4.52446,0,0,1,2.15793,1.84332c.08186.10693.17988.21273.278.32412a2.757,2.757,0,0,1,.663.96791.91532.91532,0,0,1-.88349,1.00076"/><path class="cls-2" d="M2.557,107.48475H1.81867v-7.732H4.12594A2.29751,2.29751,0,0,1,6.70779,102.061,2.11914,2.11914,0,0,1,5.036,104.21014l2.0356,3.27461H6.2411L4.286,104.32366H2.557Zm1.52427-3.80922c1.26133,0,1.85319-.62484,1.85319-1.6145,0-1.00033-.60253-1.64846-1.85319-1.64846H2.557v3.263Z"/><path class="cls-2" d="M9.28188,106.9841a1.43514,1.43514,0,0,0,1.1711-.489l.43273.42109a1.95162,1.95162,0,0,1-1.59219.65977,1.96376,1.96376,0,1,1,1.81923-1.70571H7.97494A1.22747,1.22747,0,0,0,9.28188,106.9841ZM10.38506,105.29A1.12636,1.12636,0,0,0,9.214,104.2441,1.18825,1.18825,0,0,0,7.99726,105.29Z"/><path class="cls-2" d="M11.399,106.75706l.523-.37549a1.23056,1.23056,0,0,0,1.10318.60253c.47737,0,.751-.18144.751-.49968,0-.34153-.262-.455-.9101-.63649-.77329-.21637-1.19341-.50065-1.19341-1.16043,0-.61417.49968-1.03429,1.25066-1.03429a1.562,1.562,0,0,1,1.31858.60253l-.489.40945a.98409.98409,0,0,0-.82957-.42109c-.3978,0-.60253.19308-.60253.42109,0,.32989.24936.40945.82957.56857.84121.227,1.29626.523,1.29626,1.20506,0,.70441-.53461,1.13714-1.42142,1.13714A1.86767,1.86767,0,0,1,11.399,106.75706Z"/><path class="cls-2" d="M14.73374,104.3353v-.59089h.489v-1.44471h.69373v1.44471h.93242v.59089h-.93242v2.10351c0,.36385.12516.53461.3978.53461a.66769.66769,0,0,0,.40945-.15912l.295.489a1.14134,1.14134,0,0,1-.784.27264c-.61417,0-1.012-.34153-1.012-1.10318V104.3353Z"/><path class="cls-2" d="M19.96536,105.18816c0-.69373-.34056-.94406-.87517-.94406a1.21425,1.21425,0,0,0-1.05758.53461l-.44341-.38616a1.78483,1.78483,0,0,1,1.5233-.73933,1.38782,1.38782,0,0,1,1.54659,1.53494v2.29659h-.69373v-.42109a1.4409,1.4409,0,0,1-1.1711.51229c-.784,0-1.42142-.38713-1.42142-1.20506,0-.76262.67142-1.14878,1.467-1.14878h1.1255Zm-1.07989.59089c-.455,0-.8189.17076-.8189.59186,0,.42012.31824.63649.84121.63649.5579,0,1.05758-.29593,1.05758-.8189V105.779Z"/><path class="cls-2" d="M21.51485,106.041v-2.29659h.69373v2.22771c0,.67142.31824.978.90913.978a1.03655,1.03655,0,0,0,1.11482-1.1255v-2.08023h.69373v3.74033h-.69373v-.60253a1.39029,1.39029,0,0,1-1.28462.69373A1.35776,1.35776,0,0,1,21.51485,106.041Z"/><path class="cls-2" d="M25.8616,103.74442h.69373v.62484a1.19522,1.19522,0,0,1,1.09057-.716,1.04233,1.04233,0,0,1,.59186.14748l-.23868.59186a.90936.90936,0,0,0-.46669-.10285c-.55693,0-.977.455-.977,1.2167v1.97835H25.8616Z"/><path class="cls-2" d="M30.92245,105.18816c0-.69373-.34056-.94406-.87517-.94406a1.2131,1.2131,0,0,0-1.05758.53461l-.44341-.38616a1.78483,1.78483,0,0,1,1.5233-.73933,1.38782,1.38782,0,0,1,1.54659,1.53494v2.29659h-.69373v-.42109a1.4409,1.4409,0,0,1-1.1711.51229c-.784,0-1.42142-.38713-1.42142-1.20506,0-.76262.67142-1.14878,1.467-1.14878h1.1255Zm-1.07989.59089c-.455,0-.8189.17076-.8189.59186,0,.42012.31824.63649.84121.63649.5579,0,1.05758-.29593,1.05758-.8189V105.779Z"/><path class="cls-2" d="M32.52919,103.74442h.69373v.60253a1.46973,1.46973,0,0,1,2.71671.84121v2.29659h-.69373v-2.22868c0-.65977-.31824-.978-.90913-.978a1.04534,1.04534,0,0,0-1.11385,1.13714v2.06955h-.69373Z"/><path class="cls-2" d="M36.46649,104.3353v-.59089h.489v-1.44471h.69373v1.44471h.93242v.59089h-.93242v2.10351c0,.36385.12516.53461.3978.53461a.66769.66769,0,0,0,.40945-.15912l.295.489a1.14134,1.14134,0,0,1-.784.27264c-.61417,0-1.012-.34153-1.012-1.10318V104.3353Z"/><path class="cls-2" d="M45.82654,105.23376a5.48319,5.48319,0,0,0,.31824-1.956h.68306a5.73663,5.73663,0,0,1-.52394,2.53528l1.35448,1.67175h-.9101l-.84218-1.03429a2.95,2.95,0,0,1-2.37615,1.1255,2.23827,2.23827,0,0,1-2.512-2.14912c0-1.28462.92077-1.89879,2.00067-2.5246l-.13681-.16979a2.33162,2.33162,0,0,1-.6132-1.51263,1.53622,1.53622,0,0,1,1.62518-1.55823,1.46527,1.46527,0,0,1,1.54659,1.53591c0,.75-.56857,1.31858-1.39814,1.8299Zm-2.41011-1.84251c-.96637.54625-1.63682,1.03526-1.63682,2.0356a1.55721,1.55721,0,0,0,1.75034,1.501,2.255,2.255,0,0,0,1.94536-1.012ZM44.736,101.1975a.82732.82732,0,0,0-.84218-.89846.86774.86774,0,0,0-.90913.92077,1.718,1.718,0,0,0,.455,1.07989l.20472.25033C44.29256,102.16387,44.736,101.78838,44.736,101.1975Z"/><path class="cls-2" d="M49.95983,103.61926a3.84527,3.84527,0,0,1,3.91207-3.95767,3.66688,3.66688,0,0,1,3.035,1.44471l-.56857.40945a2.97752,2.97752,0,0,0-2.478-1.18274,3.28863,3.28863,0,0,0,.05627,6.57154,3.16411,3.16411,0,0,0,2.62745-1.28462l.57827.40945a4.002,4.002,0,0,1-7.16242-2.41011Z"/><path class="cls-2" d="M57.59573,105.61992a1.98437,1.98437,0,1,1,1.989,1.956A1.94394,1.94394,0,0,1,57.59573,105.61992Zm3.2523,0a1.26611,1.26611,0,1,0-1.26327,1.36418A1.276,1.276,0,0,0,60.848,105.61992Z"/><path class="cls-2" d="M61.96576,105.61992a1.91018,1.91018,0,0,1,1.93275-1.96671,1.87423,1.87423,0,0,1,1.47867.60253l-.46766.42012a1.32223,1.32223,0,0,0-1.011-.42012,1.36865,1.36865,0,0,0,0,2.71768,1.42686,1.42686,0,0,0,1.10221-.46669l.46572.40945a1.92693,1.92693,0,0,1-1.56793.65977A1.90758,1.90758,0,0,1,61.96576,105.61992Z"/><path class="cls-2" d="M66.77823,107.48475h-.69276V99.41223h.69276V105.586l1.59316-1.84154h.817l-1.40881,1.60286,1.64749,2.13747H68.5635l-1.238-1.6145-.54722.61417Z"/><path class="cls-2" d="M69.44061,104.3353v-.59089h.489v-1.44471h.6947v1.44471h.93144v.59089h-.93144v2.10351c0,.36385.12419.53461.3978.53461a.66769.66769,0,0,0,.40945-.15912l.295.489a1.14134,1.14134,0,0,1-.784.27264c-.6132,0-1.01295-.34153-1.01295-1.10318V104.3353Z"/><path class="cls-2" d="M74.67417,105.18816c0-.69373-.34153-.94406-.87711-.94406a1.21425,1.21425,0,0,0-1.05758.53461l-.44244-.38616a1.78364,1.78364,0,0,1,1.5233-.73933,1.38823,1.38823,0,0,1,1.54659,1.53494v2.29659h-.69276v-.42109a1.44156,1.44156,0,0,1-1.17207.51229c-.784,0-1.42045-.38713-1.42045-1.20506,0-.76262.66948-1.14878,1.46509-1.14878h1.12744Zm-1.08086.59089c-.45408,0-.8189.17076-.8189.59186,0,.42012.31824.63649.84218.63649.55693,0,1.05758-.29593,1.05758-.8189V105.779Z"/><path class="cls-2" d="M76.17612,102.24343a.47737.47737,0,1,1,.47737.47737A.48027.48027,0,0,1,76.17612,102.24343Zm.12613,1.501h.70441v3.74033h-.70441Z"/><path class="cls-2" d="M77.99632,99.41223h.70635v8.07252h-.70635Z"/><path class="cls-2" d="M81.92391,99.75279h2.60416a1.94856,1.94856,0,0,1,2.20442,1.97835,1.63958,1.63958,0,0,1-1.14878,1.70571,1.83032,1.83032,0,0,1,1.53494,1.92208c0,1.22737-.84024,2.12583-2.43146,2.12583H81.92391Zm2.67208,3.41142a1.26866,1.26866,0,0,0,1.40881-1.38746c0-.784-.46572-1.37582-1.54659-1.37582h-1.795v2.76329Zm.02135,3.67242c1.19535,0,1.75228-.61417,1.75228-1.5233,0-.92077-.59186-1.53494-1.77363-1.53494H82.66325v3.05824Z"/><path class="cls-2" d="M90.2293,105.18816c0-.69373-.34153-.94406-.87711-.94406a1.21425,1.21425,0,0,0-1.05758.53461l-.44244-.38616a1.78364,1.78364,0,0,1,1.5233-.73933,1.38823,1.38823,0,0,1,1.54659,1.53494v2.29659H90.2293v-.42109a1.44156,1.44156,0,0,1-1.17207.51229c-.784,0-1.42045-.38713-1.42045-1.20506,0-.76262.66948-1.14878,1.46509-1.14878H90.2293Zm-1.08086.59089c-.45408,0-.8189.17076-.8189.59186,0,.42012.31824.63649.84218.63649.55693,0,1.05758-.29593,1.05758-.8189V105.779Z"/><path class="cls-2" d="M91.8341,103.74442h.69276v.62484a1.19684,1.19684,0,0,1,1.09251-.716,1.03143,1.03143,0,0,1,.58992.14748l-.23868.59186a.90069.90069,0,0,0-.46572-.10285c-.55693,0-.978.455-.978,1.2167v1.97835H91.8341Z"/><path class="cls-3" d="M30.7837,76.35217H29.42534V62.14667h4.17792c3.07183,0,4.74261,1.81729,4.74261,4.28271,0,2.46445-1.67078,4.26136-4.74261,4.26136H30.7837Zm2.73612-6.87329c2.31891,0,3.4056-1.21185,3.4056-3.04951,0-1.86-1.10706-3.07086-3.4056-3.07086H30.7837v6.12037Z"/><path class="cls-3" d="M39.64407,69.24894a7.2915,7.2915,0,1,1,7.2905,7.27012A7.16282,7.16282,0,0,1,39.64407,69.24894Zm13.16054,0a5.87238,5.87238,0,1,0-5.87,6.0379A5.79939,5.79939,0,0,0,52.80461,69.24894Z"/><path class="cls-3" d="M56.509,62.14667h3.55113c4.69992,0,7.50007,2.904,7.50007,7.10227,0,4.19926-2.77881,7.10324-7.50007,7.10324H56.509ZM59.934,75.12c4.19926,0,6.20575-2.4237,6.20575-5.871,0-3.44635-2.00649-5.87-6.20575-5.87H57.86546V75.12Z"/><path class="cls-3" d="M3.13628,94.94032H1.77792V80.73482H5.95584c3.07183,0,4.74261,1.81729,4.74261,4.28271,0,2.46445-1.67078,4.26136-4.74261,4.26136H3.13628ZM5.8724,88.067c2.31891,0,3.4056-1.21185,3.4056-3.04951,0-1.86-1.10706-3.07086-3.4056-3.07086H3.13628V88.067Z"/><path class="cls-3" d="M19.39194,91.43091H12.95817l-1.40008,3.50941H10.17936l5.97483-14.54024H16.259l5.99521,14.54024h-1.4418Zm-5.93311-1.21185h5.43149l-2.71574-6.74812Z"/><path class="cls-3" d="M25.64329,94.94032H24.28493V80.73482h4.17792c3.07183,0,4.74261,1.81729,4.74261,4.28271,0,2.46445-1.67078,4.26136-4.74261,4.26136H25.64329ZM28.37941,88.067c2.31891,0,3.4056-1.21185,3.4056-3.04951,0-1.86-1.10706-3.07086-3.4056-3.07086H25.64329V88.067Z"/><path class="cls-3" d="M35.34,90.11427V80.73482h1.35739v9.27564c0,2.56924,1.4418,3.86453,3.65592,3.86453,2.23547,0,3.65592-1.29529,3.65592-3.86453V80.73482h1.35739v9.37946a4.64338,4.64338,0,0,1-5.01331,4.99293A4.64338,4.64338,0,0,1,35.34,90.11427Z"/><path class="cls-3" d="M47.54389,87.83709A7.14615,7.14615,0,0,1,54.815,80.567a6.74456,6.74456,0,0,1,5.8487,2.82053l-1.044.77329a5.47566,5.47566,0,0,0-4.826-2.36063,6.04017,6.04017,0,0,0,.0621,12.07483c3.51038,0,5.15982-2.089,5.45283-4.61647H55.23219V88.04666h6.55893c-.01941,4.21964-2.48579,7.06055-6.914,7.06055A7.13467,7.13467,0,0,1,47.54389,87.83709Z"/><path class="cls-3" d="M71.11527,91.43091H64.68054l-1.401,3.50941H61.90173l5.97483-14.54024h.10479l5.99424,14.54024H72.53572Zm-5.93408-1.21185h5.43149L67.8979,83.47094Z"/><path class="cls-3" d="M77.28027,80.4418h.10479l5.39074,9.67247,5.41014-9.67247h.10479l1.58734,14.49852h-1.337l-1.17013-10.8426L82.7758,92.41281h-.064L78.138,84.09772l-1.17013,10.8426H75.69293Z"/><path class="cls-3" d="M92.87227,80.73482H94.25V94.94032H92.87227Z"/></g></g></svg>